<svg width="34" height="34" viewBox="0 0 34 34" fill="none" xmlns="http://www.w3.org/2000/svg">
<path d="M17 8.42918C18.2049 8.42918 19.1817 7.41435 19.1817 6.16251C19.1817 4.91066 18.2049 3.89584 17 3.89584C15.7952 3.89584 14.8184 4.91066 14.8184 6.16251C14.8184 7.41435 15.7952 8.42918 17 8.42918Z" stroke="white" stroke-width="1.5" stroke-linecap="round" stroke-linejoin="round"/>
<path d="M6.81421 15.9517L14.8184 7.66415" stroke="white" stroke-width="1.5" stroke-linecap="round" stroke-linejoin="round"/>
<path d="M27.0725 15.9517L19.0684 7.66415" stroke="white" stroke-width="1.5" stroke-linecap="round" stroke-linejoin="round"/>
<path d="M28.6309 16.2775L27.8801 26.775C27.6959 28.6733 26.4067 30.1042 24.8909 30.1042H9.12339C7.60756 30.1042 6.31839 28.6733 6.13423 26.775L5.21338 15.9658" stroke="white" stroke-width="1.5" stroke-linecap="round" stroke-linejoin="round"/>
<path d="M16.915 21.5192V24.5367" stroke="white" stroke-width="1.5" stroke-linecap="round" stroke-linejoin="round"/>
<path d="M11.0925 21.5192V24.5367" stroke="white" stroke-width="1.5" stroke-linecap="round" stroke-linejoin="round"/>
<path d="M22.7375 21.5192V24.5367" stroke="white" stroke-width="1.5" stroke-linecap="round" stroke-linejoin="round"/>
<path d="M3.89575 15.9517H30.1041" stroke="white" stroke-width="1.5" stroke-linecap="round" stroke-linejoin="round"/>
</svg>
